<svg width="128" height="128" viewBox="0 0 128 128" fill="none" xmlns="http://www.w3.org/2000/svg">
<path fill-rule="evenodd" clip-rule="evenodd" d="M81.0037 0.32601C76.688 1.86518 74.6789 6.48719 76.5154 10.6506C76.95 11.6358 80.5729 15.3794 96.2615 31.0564C106.829 41.616 115.983 50.5783 116.603 50.9726C120.366 53.3653 125.402 51.8747 127.429 47.7677C127.879 46.8556 128 46.1875 128 44.6106C128 41.4873 127.687 41.022 121.143 34.4188L115.502 28.7274L119.529 24.6677C121.744 22.4349 123.738 20.2479 123.962 19.8079C124.48 18.7878 124.48 17.4296 123.963 16.4075C123.429 15.3522 113.537 5.37606 112.107 4.45146C110.914 3.67963 109.662 3.52611 108.415 3.99841C108.028 4.14543 105.825 6.13565 103.52 8.4214L99.3295 12.5774L93.5004 6.82022C88.2714 1.65566 87.5219 1.00734 86.2214 0.521782C84.5772 -0.0917856 82.4039 -0.173545 81.0037 0.32601ZM60.1174 10.8167C56.687 11.951 54.6618 14.5931 54.6244 17.9827C54.5874 21.3663 52.8602 19.4241 80.3747 46.9401C94.0317 60.5979 105.656 72.0376 106.207 72.3619C106.759 72.6865 107.828 73.0623 108.585 73.1973C114.736 74.2939 119.509 67.8277 116.627 62.3043C116.344 61.7633 105.548 50.8053 91.2575 36.556C70.6167 15.9742 66.1712 11.6583 65.1555 11.214C63.641 10.5511 61.444 10.3779 60.1174 10.8167ZM56.089 55.8609C49.9007 62.138 44.8093 67.3509 44.7747 67.4446C44.7399 67.5386 48.2998 71.1955 52.6854 75.5715L60.6592 83.5279L71.9109 72.1146C78.0993 65.8375 83.1907 60.6246 83.2253 60.5309C83.2601 60.4369 79.7002 56.78 75.3146 52.404L67.3408 44.4476L56.089 55.8609ZM16.3865 54.829C11.6593 55.8449 9.11631 61.3437 11.3727 65.6712C11.6558 66.214 22.4571 77.1669 36.8675 91.5238C64.5686 119.123 62.6065 117.383 66.0039 117.355C70.1017 117.322 73.3305 114.097 73.3756 109.993C73.4126 106.609 75.1398 108.551 47.6253 81.0354C33.9683 67.3776 22.3436 55.9384 21.7926 55.6143C21.0544 55.1803 17.9503 54.3197 17.8013 54.5077C17.7923 54.5192 17.1555 54.6637 16.3865 54.829ZM5.81987 76.0111C3.55294 76.5441 1.61415 78.0943 0.571115 80.2078C0.120736 81.1199 0 81.788 0 83.3649C0 86.4882 0.313112 86.9535 6.85739 93.5567L12.4982 99.2481L8.47105 103.308C6.25647 105.541 4.26157 107.728 4.03814 108.168C3.53616 109.157 3.51612 110.55 3.99105 111.443C4.42264 112.254 15.7984 123.574 16.5784 123.968C17.2828 124.324 19.0387 124.324 19.7426 123.968C20.0434 123.815 22.1738 121.823 24.4766 119.541L28.6635 115.391L34.4961 121.152C39.7917 126.382 40.467 126.965 41.8317 127.478C48.2144 129.881 54.2314 123.552 51.4843 117.325C51.0502 116.34 47.4407 112.608 31.8635 97.0344C21.3647 86.5382 12.2752 77.602 11.6645 77.1762C10.6132 76.4434 8.35833 75.7218 7.26419 75.768C6.98865 75.7798 6.33888 75.8891 5.81987 76.0111Z" fill="white"/>
</svg>
